<svg xmlns="http://www.w3.org/2000/svg" xmlns:svg="http://www.w3.org/2000/svg" id="SVGRoot" width="32" height="32" version="1.1" viewBox="0 0 32 32"><metadata id="metadata4488"/><g id="layer1"><g id="text5046" fill="#0055d4" fill-opacity="1" stroke="none" aria-label="≟" font-family="Source Code Pro" font-size="40" font-stretch="normal" font-style="normal" font-variant="normal" font-weight="900" letter-spacing="0" word-spacing="0" style="line-height:1.25;-inkscape-font-specification:'Source Code Pro Heavy'"><path id="path5048" fill="#0055d4" fill-opacity="1" d="M 3.9726563,17.472656 H 29.011719 V 22.0625 H 3.9726563 Z m 0,8.886719 H 29.011719 v 4.628906 H 3.9726563 Z M 17.585937,10.539063 h -3.535156 v -0.46875 q 0,-0.820313 0.3125,-1.4257817 0.332032,-0.625 1.367188,-1.5820313 l 0.625,-0.5664063 q 0.566406,-0.5078125 0.820312,-0.9570312 0.253906,-0.4492188 0.253906,-0.8984375 0,-0.6835937 -0.46875,-1.0546875 -0.46875,-0.390625 -1.308593,-0.390625 -0.800781,0 -1.71875,0.3320313 -0.917969,0.3125 -1.894531,0.9570312 V 1.4179687 Q 13.210938,1.0078125 14.1875,0.8125 q 0.976563,-0.1953125 1.875,-0.1953125 2.382812,0 3.632812,0.9765625 1.25,0.9765625 1.25,2.8320312 0,0.9570313 -0.371093,1.71875 Q 20.203125,6.90625 19.265625,7.765625 l -0.625,0.546875 q -0.664063,0.625 -0.859375,0.9960938 -0.195313,0.3515625 -0.195313,0.8007812 z m -3.535156,1.445312 h 3.535156 v 3.476563 h -3.535156 z"/></g></g></svg>