<svg xmlns="http://www.w3.org/2000/svg" xmlns:osb="http://www.openswatchbook.org/uri/2009/osb" xmlns:svg="http://www.w3.org/2000/svg" id="SVGRoot" width="16" height="16" version="1.1" viewBox="0 0 16 16"><defs id="defs5036"><linearGradient id="linearGradient7079" osb:paint="solid"><stop id="stop7077" offset="0" stop-color="#acf" stop-opacity="1"/></linearGradient><filter id="filter914" color-interpolation-filters="sRGB"><feFlood id="feFlood904" flood-color="#000" flood-opacity=".498" result="flood"/><feComposite id="feComposite906" in="flood" in2="SourceGraphic" operator="in" result="composite1"/><feGaussianBlur id="feGaussianBlur908" in="composite1" result="blur" stdDeviation=".5"/><feOffset id="feOffset910" dx=".1" dy=".1" result="offset"/><feComposite id="feComposite912" in="SourceGraphic" in2="offset" operator="over" result="composite2"/></filter><filter id="filter938" color-interpolation-filters="sRGB"><feFlood id="feFlood928" flood-color="#000" flood-opacity=".498" result="flood"/><feComposite id="feComposite930" in="flood" in2="SourceGraphic" operator="in" result="composite1"/><feGaussianBlur id="feGaussianBlur932" in="composite1" result="blur" stdDeviation=".5"/><feOffset id="feOffset934" dx=".1" dy=".1" result="offset"/><feComposite id="feComposite936" in="SourceGraphic" in2="offset" operator="over" result="composite2"/></filter></defs><metadata id="metadata5039"/><g id="layer2"><path id="path5611" fill="none" stroke="red" stroke-dasharray="none" stroke-linecap="butt" stroke-linejoin="miter" stroke-miterlimit="4" stroke-opacity="1" stroke-width="1.89" d="m 11.303085,11.154756 3.83883,3.910488" filter="url(#filter938)"/></g><g id="layer1"><circle id="path5605" cx="6.848" cy="6.86" r="6.041" fill="#afc6e9" fill-opacity=".784" stroke="red" stroke-dasharray="none" stroke-miterlimit="4" stroke-opacity="1" stroke-width="1.191" filter="url(#filter914)"/><g id="text5597" fill="#000" fill-opacity="1" stroke="none" aria-label="10" font-family="Source Code Pro" font-size="10.667" font-stretch="normal" font-style="normal" font-variant="normal" font-weight="900" letter-spacing="0" transform="matrix(0.7643067,0,0,0.85162896,0.65422787,0.02035532)" word-spacing="0" style="line-height:1.25;-inkscape-font-specification:'Source Code Pro Heavy'"><path id="path7117" fill="#000" fill-opacity="1" d="M 2.4981667,11.1875 H 7.4475002 V 9.7155 H 5.9968335 V 4.4248331 H 4.6528334 c -0.5333333,0.32 -1.0666667,0.512 -1.8773334,0.6613334 V 6.2168332 H 4.1621667 V 9.7155 h -1.664 z"/><path id="path7119" fill="#000" fill-opacity="1" d="m 11.283334,11.3155 c 1.589333,0 2.666666,-1.226667 2.666666,-3.5413334 0,-2.3146668 -1.077333,-3.4773335 -2.666666,-3.4773335 -1.5893338,0 -2.6666672,1.1626667 -2.6666672,3.4773335 0,2.3146664 1.0773334,3.5413334 2.6666672,3.5413334 z m 0,-1.408 C 10.718,9.9075 10.238,9.4594999 10.238,7.7741666 c 0,-1.6853334 0.48,-2.0693334 1.045334,-2.0693334 0.565333,0 1.045333,0.384 1.045333,2.0693334 0,1.6853333 -0.48,2.1333334 -1.045333,2.1333334 z m 0,-1.2800001 c 0.490666,0 0.853333,-0.3413333 0.853333,-0.8533333 0,-0.5120001 -0.362667,-0.8533334 -0.853333,-0.8533334 -0.490667,0 -0.853334,0.3413333 -0.853334,0.8533334 0,0.512 0.362667,0.8533333 0.853334,0.8533333 z"/></g></g></svg>